<?xml version="1.0" encoding="utf-8"?>
<!-- Generator: Adobe Illustrator 21.0.2, SVG Export Plug-In . SVG Version: 6.00 Build 0)  -->
<svg version="1.1" id="Layer_1" xmlns="http://www.w3.org/2000/svg" xmlns:xlink="http://www.w3.org/1999/xlink" x="0px" y="0px"
	 viewBox="0 0 1366 322" style="enable-background:new 0 0 1366 322;" xml:space="preserve">
<style type="text/css">
	.st0{fill:#0F0F0F;}
</style>
<g>
	<path class="st0" d="M581.1,242.8c61.9-9.4,121.6-27.9,181.6-45c2.5-1.1,5-1.4,7.3,0.3c-0.4,5.4-0.4,5.4-7.8,12.1
		c6-5.3,11.1-12.1,20.3-11.8c6.4-1,13.7-5.8,16.8,5.3c1.3,4.6,4.5,1.4,6.2-0.7c3.7-4.6,8.5-7.3,14.1-8.6c3.4-0.8,6-0.2,8,3.1
		c2.3,3.8,0.3,5.7-2.2,8c-2.8,2.5-6.5,4.2-8.4,9.3c11.2-1.5,21.5-2,30.1-10c20.1-18.7,45.2-27.3,72.2-33.9c-3,10-11,13.7-18,17.8
		c-16.7,9.8-24.9,16.8-37.4,34.6c16.9-0.6,32.9,2.4,46.5-8.6c7.6-6.2,14-13.8,23.5-17.6c1.9-0.8,4.2-1.9,4.2-4.3
		c-0.1-13.3,2-26.7-2.7-39.7c-2.8-7.7-8.4-11-16.5-9.7c-6.6,1.1-13.2,2.2-19.7,3.7c-7,1.7-10.8-0.4-11.3-7.8c0.4-1,0.9-2.4,1.8-2.5
		c20.1-3,38.1-15.2,59.1-14c7.4,0.4,13-1.5,14.6-9.1c1.6-7.8-4-11.3-9.9-14.3c-1.5-0.8-3-1.8-5.4-1.3c2.5,4,7,4.7,10.2,7
		c4.3,3.2,5.3,7.3,3.2,12.1c-2,4.4-6.1,7.2-10.2,5.2c-12.4-6.1-22.6,0.3-32.8,5.1c-10.5,4.9-20.3,9.3-32.7,7.8
		c-6.4-0.8-13.7-0.1-20.7,2c-7.8,2.4-15.7-0.5-23.5-5.7c7.9-5,16-5.1,23.4-7.4c5-1.6,10.1-2.9,14.9-4.9c3.2-1.3,6.1-3.3,5.7-7.8
		c-0.9-10.6,5.7-12.8,14.6-13c4-0.1,9.7,2.8,11.8-3.4c1.2-3.7-0.3-6.9-3.8-8.9c-4.7-2.7-9.1-7.2-15.1-2.3
		c-5.3,4.4-10.9,8.4-16.4,12.6c-3,1.5-4.7,0.9-4.3-2.8c2.2-1.9,4.4-3.8,6.6-5.7c3.2-1.9,6.3-4,8.4-7.1c9.8-12.4,21.1-15.7,36.8-10.3
		c17.5,6,36.1,9,54.1,13.8c7.9,2.1,14.8,1.8,22.2-2.3c11.3-6.4,23.3-11.6,34.9-17.3c2.9-1.2,5.2-1.3,5,2.9
		c-11.4,10.3-22.4,21.1-35.8,29.3c-12.4,7.6-23.4,17.4-23.8,33.9c-0.1,4.6-3.6,4.5-6.6,5.2c-5.5,1.3-10.9,2.9-15.4,6.5
		c-9,7.2-10.1,17-2.4,25.6c19.9,22,41.8,40.3,74.3,36.9c23.7-2.4,38.6-18.9,56.1-32.8c21.4-16.9,25.7-39.7,31.4-63
		c0.8-1.4,1.6-1.4,2.4,0c1.3,18.3,2.8,36.3-7.5,53.3c-4,6.5,1.7,13.4,7.1,16.9c6.9,4.4,8.4-3.3,11.1-7.4c1.7-2.6,1.9-8,7.1-4.4
		c17.5,12.3,38,11.3,59.2,13.4c-11.3,9.6-21.7,18.6-32.3,27.3c-3.2,2.6-6.8,0.6-10.2-0.1c-26.2-5.2-52.3-6.9-78.6-0.5
		c-7.6,1.9-14.3,5.1-20.3,10.6c-12,11-27.6,14.2-43,15.4c-20.3,1.6-40.8,0.4-61.2-0.6c-15.6-0.8-31.4,2.8-47.1,4.4
		c-37.6,3.7-74.9,2.2-112.6-2.3c-34.9-4.2-71.2-4-105,10.7c-1.9,0.8-4,1.5-6,1.5c-22.5,0-45.1-0.2-67.6-0.4
		c-9.2,2.2-18.7,0.1-28,1.3C582.7,248.5,580.8,246.3,581.1,242.8z"/>
	<path class="st0" d="M66.8,183.1c16.9-16.3,32.9-33.5,51.6-48c15.6-12.1,31.3-24,48.1-34.4c11.2-6.9,22.9-9,35.4-5.9
		c19,4.7,38.6,1.4,57.8,4.8c7.7,1.4,16.4-1.6,22.6-7.2c6.2-5.6,9.9-3.2,14.7,1.8c25.5,26.8,50.3,54.3,74.6,82.2
		c3.6,4.1,7.2,7.5,12.5,9.2c30.1,9.7,60.1,19.9,91.3,25.9c2.8,0.5,5.6,1.1,8.3,1.1c58.2,1.4,116.2-0.2,174-7.9
		c3.7-0.5,6.7-2.1,9.6-4c13.5-8.2,26.9-16.6,40.3-24.8c1.6,1.7,1.6,3.6,0.4,5.5c-14.5,10.5-25.6,25.7-44.5,30.2
		c-14,3.3-28,7.1-42.3,9c-50,6.6-100.4,8-150.8,8.3c-44.2,0.2-83.2-16.2-119.1-40.6c-27.6-18.7-52.7-40.6-73.1-66.8
		c-11.9-15.3-27.3-15.2-43.2-14.9c-8,0.1-15.2,5-22.7,8.3c-5.1,2.2-5.6,6.6-6.3,11.3c-1.1,7.4-2.2,14.8-10.7,17.8
		c-2.2,0.8-4,3.3-6.7,1.3c-2.7-1.9-3.1-4.4-2-7.4c1.6-4.7,3-9.4,4.2-14.2c2-8.3-2.5-13-10.8-11.6c-15.2,2.5-17.8,4.5-18.1,20
		c-0.7,30.2-19.8,52.4-32.4,77.8c-3.4-13.3-9.3-25.9-2-39.5c3.1-5.8,4.9-12.4,7.2-18.6c1-3.2,2.8-6.2,3.1-9.6
		c0.4-4.6-1.6-5.5-5.5-3.4c-12.8,11.7-25.9,23.2-38.4,35.3c-6,5.7-12.3,10.1-20.5,11.5C70.7,186.2,67.4,188.3,66.8,183.1z"/>
	<path class="st0" d="M1074,47.7c-2.8,1.5-5.6,3-8.4,4.5c-3,1-6.4,3.2-6.7-2.6c8.5-4.8,17-9.5,25.5-14.4
		c26.6-15.4,54.3-17.1,83.4-7.5c34.6,11.4,68,24.6,97.1,47.5c23.5,18.5,48.2,35.5,72.4,53c4.7,3.4,6.6,6.2,2.4,11.8
		c-4.6,6.2-7.4,2.2-10.9-0.5c-27.6-20.6-55.9-40.2-85.8-57.4c-4-0.1-3.1,1.9-1.8,4.1c11.9,16.8,23.8,33.7,35.9,50.9
		c-12.8,2-33.6-9.5-37.6-20.9c-6.9-19.4-16.1-37.1-31.1-51.9c-10.6-10.4-22.2-18.1-36.2-22.6c-7.6-2.5-9.2,0.2-8.9,7.2
		c0.6,14.9,4.4,29.1,8.3,43.4c1.4,2.7,1.5,4.8-2.5,4.5c-11.8-12.6-23.8-25-35.1-38c-6.4-7.3-8.4-5.2-11.3,2.6
		c-9.3,24.5-23.1,45.9-44.7,61.5c-17.7,12.8-37.6,18.8-59.2,19.6c-1.4,0-2.9,0.1-4-2.8c7.8-4,15.8-8,23.8-12.1
		c11.3-5.7,22.7-11.3,33-18.8c2.8-2,7.3-4,6.3-7.7c-1.1-4.3-6-2.3-9.2-2.3c-9.3,0-18,2.7-26.7,5.7c-2.8,1-5.4,3.8-10.8,0.9
		c13-15.2,23.4-32.1,43-39.8c4.8-1.9,8,1.3,11.7,3.1c5.3,2.6,10.5,2.4,14.1-2.8c4.7-6.8,8.1-14.5,5.6-22.7c-1.1-3.7-6.4-0.9-9.7-1.6
		C1088.1,42.7,1081,44.8,1074,47.7z"/>
	<path class="st0" d="M581.1,242.8c10.1,7.6,21.9,2.2,32.7,4.1c-19.7,3.5-40.9,0.8-59.3,8.6c-33.2,14.2-65.8,2.4-98.6,0.9
		c-26.8-1.2-53.6-3.7-80.2-0.8c-18.1,2-35.9,6.6-53.7,10.8c-8.2,1.9-16.1,5.6-20.8,13.4c-2.1,3.4-5.3,4.2-8.9,4.8
		c-20.2,3.4-40,8.4-57.8,19.2c-3.4,2.1-6.5,1.8-10,0.6c-18.5-5.8-36.9-11.7-55.5-17.1c-4.8-1.4-7-3.9-8.1-8.5c-0.8-3.7,0-4.8,4-5.2
		c18.1-1.9,24.5-7.6,28.6-25c1.2-5.1,2-10.3,3.5-18.9c6,14.5,10.8,26.2,15.6,37.9c3.1,7.4,19.1,12.7,25.6,8.3
		c3.9-2.7,0.5-5.9-0.7-8.2c-3.7-7.1-1.7-9.3,5.9-9.1c12.3,0.3,24.7-0.2,37,0.2c6.7,0.2,10.5-1.5,11.1-9c0.4-4.8,2.4-9.6,4.4-14
		c2.1-4.7,6.2-7.3,11.2-4.2c15.6,9.6,33.2,9.5,50.3,9c48.3-1.3,96.5-0.7,144.6,3.8c1.8,0.2,3.7-0.2,5.3,0.4
		C532.2,253.8,556.6,246.8,581.1,242.8z"/>
	<path class="st0" d="M865.2,124.2c-5.9,3.8-13.6,2.9-19.5,7.4c2.7,2.8,6.3,4.6,9.6,4.3c19.8-1.7,40.3,0.4,58.6-10.2
		c5.2-3,10.5-5.8,15.8-8.6c7-3.7,14-6.8,21.2-0.1c2.1,2,4.9,2.7,6.9-1c2.1-4,0.2-5.6-3.2-7.1c-5.1-2.3-10.2-4.9-14.9-7.9
		c-3.9-2.4-6-7.2-4.4-10.9c1.8-4.1,7.2-2.6,10.3-1.1c8.2,3.9,16.4,8.3,23.9,13.5c5.8,3.9-0.5,19.3-9.3,22.7c-4.6,1.7-9.5,3-14.4,3.2
		c-19.8,0.7-37.9,9.8-57.5,11.1c-5.5-3.7-11.5-2.7-17.4-2c-1,0.1-2.1,0.4-3.1,0.6c-9.3,1.3-23.6,1.7-24.2-5.8
		C842.7,123.9,857,125.7,865.2,124.2z"/>
	<path class="st0" d="M708.1,181.4c-0.1-1.8-0.2-3.7-0.4-5.5c12.1-10.7,27.3-11.8,42.2-13.5c8.1-0.9,15.7-2.9,23-6.6
		c18.3-9.4,36.8-18.6,55.2-27.9c2.4-0.8,3,0.3,2.5,2.4c-11.6,9.1-23.3,18-35.8,25.7c-12.7,7.8-25.4,14.9-41.2,13.8
		c-12.2-0.8-23.5,3.7-34.9,7.1c-2.9,1.2-6,2-8.7,3.8C709.5,181.1,708.8,181.3,708.1,181.4z"/>
	<path class="st0" d="M1201.7,106.1c-1.7,5.2,2.4,15.3-3.6,16.2c-5.9,0.8-6.2-9.6-7.6-15.3c-3-13-7-25.6-13-37.6
		c-1.1-2.2-3.2-5.5,0-7.5c2.3-1.5,4.7,0.7,6.7,2C1199.3,73.7,1201.2,89.3,1201.7,106.1z"/>
	<path class="st0" d="M225.2,148.8c15.8-7.4,29-4.9,35.5,6c1.2,2,3.4,4.2,1.3,6.6c-1.6,1.8-3.9,0.6-5.9-0.1
		c-9.3-3.3-18.6-6.5-27.8-9.9C227.5,151,226.8,150.2,225.2,148.8z"/>
	<path class="st0" d="M56.2,191.4c-6.2,2.4-12.4,4.9-18.7,7.1c-2.3,0.8-4.8,1.2-7.2,1.4c-4,0.3-7.7-0.7-10.4-4c-1.6-2-1-4.1,0.8-5.6
		c3.3-2.8,6.9-5.6,11.4-3.8c7.1,2.9,14.4,3,21.8,2.7C56.1,188.4,56.6,189.4,56.2,191.4z"/>
	<path class="st0" d="M782.6,198.4c-9.6,4.3-15.6,12.9-23.6,19.3c-2.8,2.2-6,7.1-9.5,2.2c-2.9-4.1,2.6-5.6,5-7.7
		c4.7-4.2,9.8-8,14.7-12c0.8-3.3,3.5-4.6,6-6.1C777.8,195.5,780.2,196.9,782.6,198.4z"/>
	<path class="st0" d="M112.3,280.3c10,3,20.9,1.1,30.6,6.1c-14.1,1-28.3,2.5-41.9-4.1C103.8,276.5,108.4,280.3,112.3,280.3z"/>
	<path class="st0" d="M1058.9,49.5c2.2,0.9,4.5,1.8,6.7,2.6c-8.4,5.1-16.7,10.3-25.1,15.4c-1.7-1-3.3-1.9-5-2.9
		C1042.7,58.5,1050.6,53.7,1058.9,49.5z"/>
	<path class="st0" d="M841.1,119.3c7.1-5.7,14.1-11.4,21.2-17.2c2.7,1.4,1.2,3.6,0.9,5.5c-6.5,6-13.7,11-21.7,14.8
		C840.2,121.5,840.1,120.4,841.1,119.3z"/>
	<path class="st0" d="M863.2,107.6c-0.3-1.8-0.6-3.6-0.9-5.5c3-3.4,6.2-6.4,10.3-8.5c1.4,0.9,2.9,1.9,4.3,2.8
		C873.6,101.7,868.2,104.4,863.2,107.6z"/>
	<path class="st0" d="M132.3,138.8c2.3-3.5,5-6.4,10-8c-0.8,8.1-4,14.6-7.7,21C134,147.4,138.6,142.1,132.3,138.8z"/>
	<path class="st0" d="M56.2,191.4c-0.8-0.7-1.6-1.4-2.3-2.2c4.3-2.1,8.6-4.1,12.9-6.2c2.2,0.8,4.5,1.6,6.7,2.4
		C68.1,188.6,62.3,190.4,56.2,191.4z"/>
	<path class="st0" d="M841.1,119.3c0.1,1,0.2,2.1,0.4,3.1c-3,3.5-5.4,7.8-10.7,8c-0.8-0.8-1.7-1.6-2.5-2.4
		C832.5,125.1,836.8,122.2,841.1,119.3z"/>
	<path class="st0" d="M1074,47.7c6.4-4.8,13.6-6.6,21.5-6C1088.4,43.7,1081.2,45.7,1074,47.7z"/>
	<path class="st0" d="M1183.2,115.2c3.4,0.8,4.7,3,6.1,6C1184.5,121.1,1184.1,117.7,1183.2,115.2z"/>
	<path class="st0" d="M775.3,194c-1.4,2.7-2.9,5.2-6,6.1c-2.2-0.8-4.4-1.5-6.6-2.3C766.6,195.7,770.8,194.3,775.3,194z"/>
	<path class="st0" d="M112.3,280.3c-3.8,0.4-7.8,0.1-11.3,2c-1.5-0.6-3-1.1-4.5-1.7c-0.3-4.1,2.2-3.2,4.5-2.5
		C104.8,278.9,108.5,279.6,112.3,280.3z"/>
	<path class="st0" d="M1241.1,86.1c-2.2-1.7-4.6-3.4-4.2-7.6c2.5,0.1,4.7,0.8,6,3.5C1242.3,83.3,1241.7,84.7,1241.1,86.1z"/>
	<path class="st0" d="M1173.8,100.4c3.6,1.5,5.3,4.2,5.2,8.3c-3.2-0.7-4.3-3.2-5.6-5.5C1172.3,102,1172.4,101.1,1173.8,100.4z"/>
	<path class="st0" d="M101,278.1c-1.5,0.8-3,1.6-4.5,2.5c-1.7-0.2-4.4-1.2-3.5-2.6C95.2,274.7,98.3,277.1,101,278.1z"/>
	<path class="st0" d="M887.6,80.8c-1.5,4-4.2,6.4-8.4,7.1C882,85.6,884.8,83.2,887.6,80.8z"/>
	<path class="st0" d="M1173.8,100.4c-0.1,0.9-0.3,1.9-0.4,2.8c-2.6-1.4-3.4-4-4.5-6.4c0.8-1.5,1.7-3,2.5-4.5
		C1173.8,94.4,1173.8,97.4,1173.8,100.4z"/>
	<path class="st0" d="M710.1,180.8c2.2-2.7,5.2-3.9,8.7-3.8C716.2,179,713.5,180.7,710.1,180.8z"/>
	<path class="st0" d="M1120.7,109.1c-0.8,0-1.6,0-2.4,0c-0.2-2.4-0.6-4.8,1.4-6.9C1121.8,104.4,1121.2,106.7,1120.7,109.1z"/>
	<path class="st0" d="M898.9,135.3c-0.5,0.4-0.9,0.8-1.4,1c-0.3,0.1-0.7,0-1-0.2c-0.8-0.5-0.6-1.1,0.4-1.3
		C897.4,134.8,898.1,135.2,898.9,135.3z"/>
</g>
</svg>
