<svg id="Layer_1" xmlns="http://www.w3.org/2000/svg" viewBox="0 0 1366 322"><style>.st0{fill:#0f0f0f}</style><path class="st0" d="M581.1 242.8c61.9-9.4 121.6-27.9 181.6-45 2.5-1.1 5-1.4 7.3.3-.4 5.4-.4 5.4-7.8 12.1 6-5.3 11.1-12.1 20.3-11.8 6.4-1 13.7-5.8 16.8 5.3 1.3 4.6 4.5 1.4 6.2-.7 3.7-4.6 8.5-7.3 14.1-8.6 3.4-.8 6-.2 8 3.1 2.3 3.8.3 5.7-2.2 8-2.8 2.5-6.5 4.2-8.4 9.3 11.2-1.5 21.5-2 30.1-10 20.1-18.7 45.2-27.3 72.2-33.9-3 10-11 13.7-18 17.8-16.7 9.8-24.9 16.8-37.4 34.6 16.9-.6 32.9 2.4 46.5-8.6 7.6-6.2 14-13.8 23.5-17.6 1.9-.8 4.2-1.9 4.2-4.3-.1-13.3 2-26.7-2.7-39.7-2.8-7.7-8.4-11-16.5-9.7-6.6 1.1-13.2 2.2-19.7 3.7-7 1.7-10.8-.4-11.3-7.8.4-1 .9-2.4 1.8-2.5 20.1-3 38.1-15.2 59.1-14 7.4.4 13-1.5 14.6-9.1 1.6-7.8-4-11.3-9.9-14.3-1.5-.8-3-1.8-5.4-1.3 2.5 4 7 4.7 10.2 7 4.3 3.2 5.3 7.3 3.2 12.1-2 4.4-6.1 7.2-10.2 5.2-12.4-6.1-22.6.3-32.8 5.1-10.5 4.9-20.3 9.3-32.7 7.8-6.4-.8-13.7-.1-20.7 2-7.8 2.4-15.7-.5-23.5-5.7 7.9-5 16-5.1 23.4-7.4 5-1.6 10.1-2.9 14.9-4.9 3.2-1.3 6.1-3.3 5.7-7.8-.9-10.6 5.7-12.8 14.6-13 4-.1 9.7 2.8 11.8-3.4 1.2-3.7-.3-6.9-3.8-8.9-4.7-2.7-9.1-7.2-15.1-2.3-5.3 4.4-10.9 8.4-16.4 12.6-3 1.5-4.7.9-4.3-2.8L879 88c3.2-1.9 6.3-4 8.4-7.1 9.8-12.4 21.1-15.7 36.8-10.3 17.5 6 36.1 9 54.1 13.8 7.9 2.1 14.8 1.8 22.2-2.3 11.3-6.4 23.3-11.6 34.9-17.3 2.9-1.2 5.2-1.3 5 2.9C1029 78 1018 88.8 1004.6 97c-12.4 7.6-23.4 17.4-23.8 33.9-.1 4.6-3.6 4.5-6.6 5.2-5.5 1.3-10.9 2.9-15.4 6.5-9 7.2-10.1 17-2.4 25.6 19.9 22 41.8 40.3 74.3 36.9 23.7-2.4 38.6-18.9 56.1-32.8 21.4-16.9 25.7-39.7 31.4-63 .8-1.4 1.6-1.4 2.4 0 1.3 18.3 2.8 36.3-7.5 53.3-4 6.5 1.7 13.4 7.1 16.9 6.9 4.4 8.4-3.3 11.1-7.4 1.7-2.6 1.9-8 7.1-4.4 17.5 12.3 38 11.3 59.2 13.4-11.3 9.6-21.7 18.6-32.3 27.3-3.2 2.6-6.8.6-10.2-.1-26.2-5.2-52.3-6.9-78.6-.5-7.6 1.9-14.3 5.1-20.3 10.6-12 11-27.6 14.2-43 15.4-20.3 1.6-40.8.4-61.2-.6-15.6-.8-31.4 2.8-47.1 4.4-37.6 3.7-74.9 2.2-112.6-2.3-34.9-4.2-71.2-4-105 10.7-1.9.8-4 1.5-6 1.5-22.5 0-45.1-.2-67.6-.4-9.2 2.2-18.7.1-28 1.3-3 .1-4.9-2.1-4.6-5.6z"/><path class="st0" d="M66.8 183.1c16.9-16.3 32.9-33.5 51.6-48 15.6-12.1 31.3-24 48.1-34.4 11.2-6.9 22.9-9 35.4-5.9 19 4.7 38.6 1.4 57.8 4.8 7.7 1.4 16.4-1.6 22.6-7.2 6.2-5.6 9.9-3.2 14.7 1.8 25.5 26.8 50.3 54.3 74.6 82.2 3.6 4.1 7.2 7.5 12.5 9.2 30.1 9.7 60.1 19.9 91.3 25.9 2.8.5 5.6 1.1 8.3 1.1 58.2 1.4 116.2-.2 174-7.9 3.7-.5 6.7-2.1 9.6-4 13.5-8.2 26.9-16.6 40.3-24.8 1.6 1.7 1.6 3.6.4 5.5-14.5 10.5-25.6 25.7-44.5 30.2-14 3.3-28 7.1-42.3 9-50 6.6-100.4 8-150.8 8.3-44.2.2-83.2-16.2-119.1-40.6-27.6-18.7-52.7-40.6-73.1-66.8-11.9-15.3-27.3-15.2-43.2-14.9-8 .1-15.2 5-22.7 8.3-5.1 2.2-5.6 6.6-6.3 11.3-1.1 7.4-2.2 14.8-10.7 17.8-2.2.8-4 3.3-6.7 1.3-2.7-1.9-3.1-4.4-2-7.4 1.6-4.7 3-9.4 4.2-14.2 2-8.3-2.5-13-10.8-11.6-15.2 2.5-17.8 4.5-18.1 20-.7 30.2-19.8 52.4-32.4 77.8-3.4-13.3-9.3-25.9-2-39.5 3.1-5.8 4.9-12.4 7.2-18.6 1-3.2 2.8-6.2 3.1-9.6.4-4.6-1.6-5.5-5.5-3.4-12.8 11.7-25.9 23.2-38.4 35.3-6 5.7-12.3 10.1-20.5 11.5-2.7.6-6 2.7-6.6-2.5zM1074 47.7l-8.4 4.5c-3 1-6.4 3.2-6.7-2.6 8.5-4.8 17-9.5 25.5-14.4 26.6-15.4 54.3-17.1 83.4-7.5 34.6 11.4 68 24.6 97.1 47.5 23.5 18.5 48.2 35.5 72.4 53 4.7 3.4 6.6 6.2 2.4 11.8-4.6 6.2-7.4 2.2-10.9-.5-27.6-20.6-55.9-40.2-85.8-57.4-4-.1-3.1 1.9-1.8 4.1 11.9 16.8 23.8 33.7 35.9 50.9-12.8 2-33.6-9.5-37.6-20.9-6.9-19.4-16.1-37.1-31.1-51.9-10.6-10.4-22.2-18.1-36.2-22.6-7.6-2.5-9.2.2-8.9 7.2.6 14.9 4.4 29.1 8.3 43.4 1.4 2.7 1.5 4.8-2.5 4.5-11.8-12.6-23.8-25-35.1-38-6.4-7.3-8.4-5.2-11.3 2.6-9.3 24.5-23.1 45.9-44.7 61.5-17.7 12.8-37.6 18.8-59.2 19.6-1.4 0-2.9.1-4-2.8 7.8-4 15.8-8 23.8-12.1 11.3-5.7 22.7-11.3 33-18.8 2.8-2 7.3-4 6.3-7.7-1.1-4.3-6-2.3-9.2-2.3-9.3 0-18 2.7-26.7 5.7-2.8 1-5.4 3.8-10.8.9 13-15.2 23.4-32.1 43-39.8 4.8-1.9 8 1.3 11.7 3.1 5.3 2.6 10.5 2.4 14.1-2.8 4.7-6.8 8.1-14.5 5.6-22.7-1.1-3.7-6.4-.9-9.7-1.6-7.8 1.1-14.9 3.2-21.9 6.1zM581.1 242.8c10.1 7.6 21.9 2.2 32.7 4.1-19.7 3.5-40.9.8-59.3 8.6-33.2 14.2-65.8 2.4-98.6.9-26.8-1.2-53.6-3.7-80.2-.8-18.1 2-35.9 6.6-53.7 10.8-8.2 1.9-16.1 5.6-20.8 13.4-2.1 3.4-5.3 4.2-8.9 4.8-20.2 3.4-40 8.4-57.8 19.2-3.4 2.1-6.5 1.8-10 .6-18.5-5.8-36.9-11.7-55.5-17.1-4.8-1.4-7-3.9-8.1-8.5-.8-3.7 0-4.8 4-5.2 18.1-1.9 24.5-7.6 28.6-25 1.2-5.1 2-10.3 3.5-18.9 6 14.5 10.8 26.2 15.6 37.9 3.1 7.4 19.1 12.7 25.6 8.3 3.9-2.7.5-5.9-.7-8.2-3.7-7.1-1.7-9.3 5.9-9.1 12.3.3 24.7-.2 37 .2 6.7.2 10.5-1.5 11.1-9 .4-4.8 2.4-9.6 4.4-14 2.1-4.7 6.2-7.3 11.2-4.2 15.6 9.6 33.2 9.5 50.3 9 48.3-1.3 96.5-.7 144.6 3.8 1.8.2 3.7-.2 5.3.4 24.9 9 49.3 2 73.8-2zm284.1-118.6c-5.9 3.8-13.6 2.9-19.5 7.4 2.7 2.8 6.3 4.6 9.6 4.3 19.8-1.7 40.3.4 58.6-10.2 5.2-3 10.5-5.8 15.8-8.6 7-3.7 14-6.8 21.2-.1 2.1 2 4.9 2.7 6.9-1 2.1-4 .2-5.6-3.2-7.1-5.1-2.3-10.2-4.9-14.9-7.9-3.9-2.4-6-7.2-4.4-10.9 1.8-4.1 7.2-2.6 10.3-1.1 8.2 3.9 16.4 8.3 23.9 13.5 5.8 3.9-.5 19.3-9.3 22.7-4.6 1.7-9.5 3-14.4 3.2-19.8.7-37.9 9.8-57.5 11.1-5.5-3.7-11.5-2.7-17.4-2-1 .1-2.1.4-3.1.6-9.3 1.3-23.6 1.7-24.2-5.8-.9-8.4 13.4-6.6 21.6-8.1z"/><path class="st0" d="M708.1 181.4c-.1-1.8-.2-3.7-.4-5.5 12.1-10.7 27.3-11.8 42.2-13.5 8.1-.9 15.7-2.9 23-6.6 18.3-9.4 36.8-18.6 55.2-27.9 2.4-.8 3 .3 2.5 2.4-11.6 9.1-23.3 18-35.8 25.7-12.7 7.8-25.4 14.9-41.2 13.8-12.2-.8-23.5 3.7-34.9 7.1-2.9 1.2-6 2-8.7 3.8-.5.4-1.2.6-1.9.7zm493.6-75.3c-1.7 5.2 2.4 15.3-3.6 16.2-5.9.8-6.2-9.6-7.6-15.3-3-13-7-25.6-13-37.6-1.1-2.2-3.2-5.5 0-7.5 2.3-1.5 4.7.7 6.7 2 15.1 9.8 17 25.4 17.5 42.2zm-976.5 42.7c15.8-7.4 29-4.9 35.5 6 1.2 2 3.4 4.2 1.3 6.6-1.6 1.8-3.9.6-5.9-.1-9.3-3.3-18.6-6.5-27.8-9.9-.8-.4-1.5-1.2-3.1-2.6zm-169 42.6c-6.2 2.4-12.4 4.9-18.7 7.1-2.3.8-4.8 1.2-7.2 1.4-4 .3-7.7-.7-10.4-4-1.6-2-1-4.1.8-5.6 3.3-2.8 6.9-5.6 11.4-3.8 7.1 2.9 14.4 3 21.8 2.7 2.2-.8 2.7.2 2.3 2.2zm726.4 7c-9.6 4.3-15.6 12.9-23.6 19.3-2.8 2.2-6 7.1-9.5 2.2-2.9-4.1 2.6-5.6 5-7.7 4.7-4.2 9.8-8 14.7-12 .8-3.3 3.5-4.6 6-6.1 2.6 1.4 5 2.8 7.4 4.3zm-670.3 81.9c10 3 20.9 1.1 30.6 6.1-14.1 1-28.3 2.5-41.9-4.1 2.8-5.8 7.4-2 11.3-2zm946.6-230.8c2.2.9 4.5 1.8 6.7 2.6-8.4 5.1-16.7 10.3-25.1 15.4-1.7-1-3.3-1.9-5-2.9 7.2-6.1 15.1-10.9 23.4-15.1zm-217.8 69.8c7.1-5.7 14.1-11.4 21.2-17.2 2.7 1.4 1.2 3.6.9 5.5-6.5 6-13.7 11-21.7 14.8-1.3-.9-1.4-2-.4-3.1z"/><path class="st0" d="M863.2 107.6c-.3-1.8-.6-3.6-.9-5.5 3-3.4 6.2-6.4 10.3-8.5 1.4.9 2.9 1.9 4.3 2.8-3.3 5.3-8.7 8-13.7 11.2zm-730.9 31.2c2.3-3.5 5-6.4 10-8-.8 8.1-4 14.6-7.7 21-.6-4.4 4-9.7-2.3-13zm-76.1 52.6c-.8-.7-1.6-1.4-2.3-2.2 4.3-2.1 8.6-4.1 12.9-6.2 2.2.8 4.5 1.6 6.7 2.4-5.4 3.2-11.2 5-17.3 6zm784.9-72.1c.1 1 .2 2.1.4 3.1-3 3.5-5.4 7.8-10.7 8-.8-.8-1.7-1.6-2.5-2.4 4.2-2.9 8.5-5.8 12.8-8.7zM1074 47.7c6.4-4.8 13.6-6.6 21.5-6-7.1 2-14.3 4-21.5 6zm109.2 67.5c3.4.8 4.7 3 6.1 6-4.8-.1-5.2-3.5-6.1-6zM775.3 194c-1.4 2.7-2.9 5.2-6 6.1-2.2-.8-4.4-1.5-6.6-2.3 3.9-2.1 8.1-3.5 12.6-3.8zm-663 86.3c-3.8.4-7.8.1-11.3 2-1.5-.6-3-1.1-4.5-1.7-.3-4.1 2.2-3.2 4.5-2.5 3.8.8 7.5 1.5 11.3 2.2zM1241.1 86.1c-2.2-1.7-4.6-3.4-4.2-7.6 2.5.1 4.7.8 6 3.5-.6 1.3-1.2 2.7-1.8 4.1zm-67.3 14.3c3.6 1.5 5.3 4.2 5.2 8.3-3.2-.7-4.3-3.2-5.6-5.5-1.1-1.2-1-2.1.4-2.8z"/><path class="st0" d="M101 278.1c-1.5.8-3 1.6-4.5 2.5-1.7-.2-4.4-1.2-3.5-2.6 2.2-3.3 5.3-.9 8 .1zM887.6 80.8c-1.5 4-4.2 6.4-8.4 7.1 2.8-2.3 5.6-4.7 8.4-7.1zm286.2 19.6c-.1.9-.3 1.9-.4 2.8-2.6-1.4-3.4-4-4.5-6.4.8-1.5 1.7-3 2.5-4.5 2.4 2.1 2.4 5.1 2.4 8.1zm-463.7 80.4c2.2-2.7 5.2-3.9 8.7-3.8-2.6 2-5.3 3.7-8.7 3.8zm410.6-71.7h-2.4c-.2-2.4-.6-4.8 1.4-6.9 2.1 2.2 1.5 4.5 1 6.9zm-221.8 26.2c-.5.4-.9.8-1.4 1-.3.1-.7 0-1-.2-.8-.5-.6-1.1.4-1.3.5 0 1.2.4 2 .5z"/></svg>